<?xml version="1.0" standalone="no"?>
<!DOCTYPE svg PUBLIC "-//W3C//DTD SVG 20010904//EN"
 "http://www.w3.org/TR/2001/REC-SVG-20010904/DTD/svg10.dtd">
<svg version="1.0" xmlns="http://www.w3.org/2000/svg"
 width="124.000000pt" height="112.000000pt" viewBox="0 0 124.000000 112.000000"
 preserveAspectRatio="xMidYMid meet">

<g transform="translate(0.000000,112.000000) scale(0.100000,-0.100000)"
fill="#000000" stroke="none">
<path d="M760 890 c12 -8 9 -10 -12 -10 -16 0 -28 -5 -28 -11 0 -6 -12 -20
-26 -31 -14 -12 -23 -27 -20 -34 3 -8 -6 -24 -20 -37 -27 -22 -64 -95 -64
-125 0 -8 -7 -23 -16 -33 -11 -12 -13 -23 -6 -34 15 -27 -8 -67 -35 -60 -24 6
-53 -3 -53 -16 0 -5 23 -9 50 -9 28 0 50 -5 50 -10 0 -7 80 -9 232 -8 l233 3
17 75 c29 124 60 273 65 313 l5 37 -193 0 c-129 0 -189 -4 -179 -10z"/>
<path d="M920 273 c-21 -8 -30 -24 -30 -54 0 -52 69 -79 103 -41 46 51 -8 120
-73 95z"/>
<path d="M368 259 c10 -13 9 -19 -2 -28 -10 -8 -16 -9 -21 -1 -3 5 -1 10 5 10
6 0 8 5 4 11 -5 8 -10 6 -16 -5 -5 -9 -14 -13 -20 -10 -6 4 -8 3 -4 -4 3 -5 0
-12 -6 -15 -7 -2 -10 -8 -5 -12 4 -5 12 -4 18 2 14 14 39 6 39 -13 0 -8 5 -14
11 -14 7 0 9 10 7 25 -3 13 0 26 6 28 7 3 3 12 -8 23 -12 11 -15 12 -8 3z"/>
<path d="M828 263 c7 -3 16 -2 19 1 4 3 -2 6 -13 5 -11 0 -14 -3 -6 -6z"/>
<path d="M325 180 c3 -5 11 -10 16 -10 6 0 7 5 4 10 -3 6 -11 10 -16 10 -6 0
-7 -4 -4 -10z"/>
</g>
</svg>
